<svg width="44" height="44" viewBox="0 0 44 44" fill="none" xmlns="http://www.w3.org/2000/svg">
<g opacity="0.25">
<rect width="44" height="44" rx="22" fill="#F28482"/>
<path d="M18.182 20.225C18.2407 19.7263 18.424 19.279 18.732 18.883C19.0473 18.487 19.48 18.1753 20.03 17.948C20.58 17.7207 21.2327 17.607 21.988 17.607C22.6773 17.607 23.2713 17.6987 23.77 17.882C24.2687 18.0653 24.6537 18.322 24.925 18.652C25.2037 18.982 25.343 19.3707 25.343 19.818C25.343 20.1993 25.2293 20.544 25.002 20.852C24.7747 21.1527 24.441 21.391 24.001 21.567C23.561 21.743 23.022 21.831 22.384 21.831V21.633C23.0367 21.611 23.5977 21.6807 24.067 21.842C24.5363 21.996 24.8957 22.227 25.145 22.535C25.4017 22.8357 25.53 23.2023 25.53 23.635C25.53 24.1263 25.387 24.5627 25.101 24.944C24.815 25.318 24.397 25.6113 23.847 25.824C23.3043 26.0367 22.637 26.143 21.845 26.143C21.075 26.143 20.404 26.0293 19.832 25.802C19.26 25.5747 18.8127 25.2557 18.49 24.845C18.1673 24.4343 17.984 23.9577 17.94 23.415H18.985C19.0583 24.0017 19.337 24.46 19.821 24.79C20.3123 25.1127 20.987 25.274 21.845 25.274C22.6957 25.274 23.3447 25.1273 23.792 24.834C24.2467 24.5333 24.474 24.1153 24.474 23.58C24.474 23.272 24.397 23.0117 24.243 22.799C24.089 22.5863 23.8397 22.425 23.495 22.315C23.1503 22.1977 22.6993 22.139 22.142 22.139H20.602V21.336H22.142C22.8753 21.336 23.4143 21.204 23.759 20.94C24.111 20.6687 24.287 20.335 24.287 19.939C24.287 19.4623 24.0817 19.0993 23.671 18.85C23.2603 18.6007 22.681 18.476 21.933 18.476C21.163 18.476 20.5397 18.63 20.063 18.938C19.5937 19.2387 19.315 19.6677 19.227 20.225H18.182Z" fill="white"/>
</g>
</svg>
