<svg width="44" height="44" viewBox="0 0 44 44" fill="none" xmlns="http://www.w3.org/2000/svg">
<g opacity="0.25">
<rect width="44" height="44" rx="22" fill="#F28482"/>
<path d="M18.006 20.522C18.05 19.9353 18.237 19.4257 18.567 18.993C18.9043 18.553 19.348 18.212 19.898 17.97C20.4553 17.728 21.086 17.607 21.79 17.607C22.472 17.607 23.066 17.7133 23.572 17.926C24.0853 18.1387 24.485 18.4393 24.771 18.828C25.057 19.2167 25.2 19.6677 25.2 20.181C25.2 20.577 25.1047 20.9473 24.914 21.292C24.7307 21.6293 24.419 21.9777 23.979 22.337C23.5463 22.6963 22.956 23.107 22.208 23.569L19.205 25.439L19.073 25.12H25.475V26H18.039V25.208L21.526 23.008C22.1713 22.5973 22.6847 22.2417 23.066 21.941C23.4547 21.633 23.7333 21.3433 23.902 21.072C24.0707 20.8007 24.155 20.5147 24.155 20.214C24.155 19.8693 24.0597 19.5687 23.869 19.312C23.6857 19.048 23.4143 18.8427 23.055 18.696C22.703 18.5493 22.274 18.476 21.768 18.476C21.1813 18.476 20.69 18.5677 20.294 18.751C19.9053 18.927 19.6083 19.169 19.403 19.477C19.205 19.785 19.0877 20.1333 19.051 20.522H18.006Z" fill="white"/>
</g>
</svg>
